<svg width="62" height="63" viewBox="0 0 62 63" fill="none" xmlns="http://www.w3.org/2000/svg">
<path d="M28.1584 6.25547C16.275 7.54713 6.71669 17.1055 5.42502 28.7305C4.13336 40.8721 11.1084 51.7221 21.7 55.8555C22.475 56.1138 23.25 55.5971 23.25 54.5638V50.4305C23.25 50.4305 22.2167 50.6888 20.925 50.6888C17.3084 50.6888 15.7584 47.5888 15.5 45.7805C15.2417 44.7471 14.725 43.9721 13.95 43.1971C13.175 42.9388 12.9167 42.9388 12.9167 42.6805C12.9167 42.1638 13.6917 42.1638 13.95 42.1638C15.5 42.1638 16.7917 43.9721 17.3084 44.7471C18.6 46.8138 20.15 47.3305 20.925 47.3305C21.9584 47.3305 22.7334 47.0721 23.25 46.8138C23.5084 45.0055 24.2834 43.1971 25.8334 42.1638C19.8917 40.8721 15.5 37.5138 15.5 31.8305C15.5 28.9888 16.7917 26.1471 18.6 24.0805C18.3417 23.5638 18.0834 22.2721 18.0834 20.4638C18.0834 19.4305 18.0834 18.1388 18.6 17.1055C18.6 16.5888 19.1167 16.3305 19.375 16.3305H19.6334C20.925 16.5888 23.5084 17.3638 25.8334 19.6888C27.3834 19.1721 29.1917 18.9138 31 18.9138C32.8084 18.9138 34.6167 19.1721 36.1667 19.6888C38.4917 17.3638 41.3334 16.5888 42.625 16.3305H42.8834C43.4 16.3305 43.6584 16.5888 43.9167 17.1055C43.9167 18.1388 43.9167 19.4305 43.9167 20.4638C43.9167 22.5305 43.6584 23.5638 43.4 24.0805C45.2084 26.1471 46.5 28.7305 46.5 31.8305C46.5 37.5138 42.1084 40.8721 36.1667 42.1638C37.7167 43.4555 38.75 45.7805 38.75 48.1055V54.8221C38.75 55.5971 39.525 56.3721 40.5584 56.1138C50.1167 52.2388 56.8334 42.9388 56.8334 32.0888C56.8334 16.5888 43.6584 4.44713 28.1584 6.25547Z" fill="black"/>
</svg>
