<svg width="88" height="88" viewBox="0 0 88 88" fill="none" xmlns="http://www.w3.org/2000/svg">
<path d="M74.4434 10.9428C73.3838 10.9889 72.4115 11.2936 71.5573 11.6303C70.7682 11.9411 67.9343 13.1321 63.4219 15.0248C58.9094 16.9175 52.9301 19.4269 46.5566 22.1075C33.8098 27.4686 19.4855 33.4992 12.1458 36.588C11.8938 36.693 10.8701 37.0063 9.73958 37.8699C8.6064 38.7354 7.34766 40.6138 7.34766 42.668C7.34766 44.3252 8.17491 46.0129 9.17383 46.9792C10.1727 47.9455 11.1851 48.3973 12.0313 48.7338C14.5066 49.7195 22.1558 52.7743 25.4805 54.1049C26.6452 57.5953 29.3807 65.817 30.0208 67.8406H30.0137C30.5344 69.4877 31.0419 70.5611 31.7467 71.4571C32.0992 71.9051 32.5198 72.3111 33.0358 72.6316C33.2338 72.7546 33.453 72.8499 33.6732 72.9395C33.7039 72.9525 33.7355 72.9558 33.7663 72.9682L33.6803 72.9467C33.7442 72.9723 33.8015 73.0102 33.8665 73.0326C33.9726 73.0691 34.0461 73.0679 34.1888 73.0971C34.6912 73.2516 35.1926 73.3549 35.6569 73.3549C37.6501 73.3549 38.8724 72.2735 38.8724 72.2735L38.9512 72.2162L47.5592 64.933L58.1009 74.6798C58.2894 74.9461 59.7966 76.9929 63.293 76.9929C65.3761 76.9929 67.0303 75.969 68.084 74.8874C69.1377 73.8059 69.7941 72.6993 70.0892 71.1993V71.185V71.1778C70.2941 70.1131 80.416 19.3074 80.416 19.3074L80.3945 19.3933C80.7088 17.9914 80.8014 16.6356 80.4303 15.254C80.0593 13.8724 79.058 12.524 77.8522 11.8165C76.6464 11.1089 75.5029 10.8967 74.4434 10.9428ZM72.9967 18.9708C72.5991 20.9669 63.5916 66.2199 63.0065 69.2227L52.5365 59.5476C49.8377 57.0525 45.6294 56.9647 42.8255 59.3328L37.4831 63.8516L40.3333 52.7084C40.3333 52.7084 59.996 32.8052 61.1803 31.6466C62.1337 30.7189 62.3333 30.3937 62.3333 30.071C62.3333 29.642 62.1125 29.3334 61.6029 29.3334C61.1445 29.3334 60.5221 29.7726 60.1921 29.9779C55.9809 32.6034 37.9505 42.8789 29.2188 47.8458C28.8908 47.6494 28.5681 47.4455 28.209 47.3015C25.3439 46.1548 19.8371 43.9471 16.6146 42.6609C24.2202 39.4599 37.2576 33.9747 49.3997 28.8679C55.7721 26.1878 61.7497 23.6761 66.2578 21.7852C70.0632 20.1891 72.0483 19.3626 72.9967 18.9708ZM62.8919 69.7527H62.8991C62.8989 69.7539 62.8923 69.7802 62.8919 69.7813C62.8981 69.75 62.8877 69.7752 62.8919 69.7527Z" fill="black"/>
</svg>
