<svg width="96" height="96" viewBox="0 0 96 96" fill="none" xmlns="http://www.w3.org/2000/svg">
<path d="M81.2109 11.9375C80.0551 11.9877 78.9943 12.3202 78.0625 12.6875C77.2016 13.0265 74.1102 14.3259 69.1875 16.3906C64.2648 18.4553 57.7419 21.1929 50.7891 24.1172C36.8834 29.9656 21.257 36.5445 13.25 39.914C12.975 40.0286 11.8583 40.3704 10.625 41.3125C9.3888 42.2567 8.01562 44.3058 8.01562 46.5468C8.01562 48.3546 8.91808 50.1958 10.0078 51.25C11.0975 52.3041 12.202 52.7969 13.125 53.164C15.8254 54.2394 24.17 57.5718 27.7969 59.0234C29.0675 62.8312 32.0517 71.8002 32.75 74.0078H32.7422C33.3102 75.8046 33.8639 76.9756 34.6328 77.9531C35.0173 78.4418 35.4762 78.8847 36.0391 79.2343C36.255 79.3685 36.4942 79.4726 36.7344 79.5703C36.7678 79.5845 36.8023 79.588 36.8359 79.6015L36.7422 79.5781C36.8118 79.6061 36.8743 79.6474 36.9453 79.6718C37.061 79.7117 37.1411 79.7104 37.2969 79.7421C37.8449 79.9107 38.3919 80.0234 38.8984 80.0234C41.0729 80.0234 42.4062 78.8437 42.4062 78.8437L42.4922 78.7812L51.8828 70.8359L63.3828 81.4687C63.5885 81.7593 65.2327 83.9921 69.0469 83.9921C71.3194 83.9921 73.1239 82.8751 74.2734 81.6953C75.423 80.5154 76.139 79.3082 76.4609 77.6718V77.6562V77.6484C76.6845 76.4869 87.7266 21.0625 87.7266 21.0625L87.7031 21.1562C88.0459 19.6268 88.1469 18.1478 87.7422 16.6406C87.3374 15.1334 86.2451 13.6625 84.9297 12.8906C83.6143 12.1187 82.3668 11.8872 81.2109 11.9375ZM79.6328 20.6953C79.199 22.8729 69.3727 72.2398 68.7344 75.5156L57.3125 64.9609C54.3684 62.239 49.7775 62.1432 46.7188 64.7265L40.8906 69.6562L44 57.5C44 57.5 65.4502 35.7874 66.7422 34.5234C67.7822 33.5114 68 33.1567 68 32.8047C68 32.3367 67.7591 32 67.2031 32C66.7031 32 66.0241 32.4791 65.6641 32.7031C61.07 35.5672 41.4005 46.7769 31.875 52.1953C31.5172 51.981 31.1653 51.7586 30.7734 51.6015C27.6479 50.3506 21.6405 47.9422 18.125 46.539C26.4221 43.047 40.6446 37.0632 53.8906 31.4922C60.8423 28.5684 67.3633 25.8284 72.2812 23.7656C76.4326 22.0244 78.5982 21.1228 79.6328 20.6953ZM68.6094 76.0937H68.6172C68.6169 76.095 68.6098 76.1238 68.6094 76.125C68.6161 76.0908 68.6047 76.1183 68.6094 76.0937Z" fill="black"/>
</svg>
