<svg width="88" height="65" viewBox="0 0 88 65" fill="none" xmlns="http://www.w3.org/2000/svg">
<path d="M75.92 7.28C69.2 1.92 59.6 0.44 55.44 0H55.28C54.64 0 54.04 0.360001 53.84 0.960001C53.48 1.88 54.04 2.88 54.96 3.04C59.64 4 65.04 5.68 69.96 8.76C70.96 9.36 71.2 10.72 70.4 11.64C69.76 12.36 68.68 12.44 67.84 11.96C58.24 6.04 46.32 5.72 44 5.72C41.68 5.72 29.76 6.04 20.16 11.96C19.32 12.44 18.24 12.36 17.6 11.64C16.8 10.72 17.04 9.36 18.04 8.76C22.96 5.68 28.36 4 33.04 3.04C33.96 2.88 34.52 1.88 34.16 0.960001C33.96 0.360001 33.36 0 32.72 0H32.56C28.4 0.44 18.8 1.92 12.08 7.28C8.16 10.92 0.36 31.84 0 50.36C0 51.6 0.32 52.84 1.04 53.84C5.72 60.44 15.88 64.4 23.56 64.96C24.72 65.04 25.84 64.52 26.52 63.56C26.56 63.56 26.56 63.52 26.6 63.48C28 61.56 27.16 58.84 24.92 58C18.52 55.64 15.24 52.84 15.04 52.64C14.24 51.92 14.16 50.72 14.84 49.92C15.56 49.12 16.76 49.04 17.56 49.76C17.68 49.84 26.56 57.4 44 57.4C61.44 57.4 70.32 49.84 70.44 49.76C71.24 49.04 72.44 49.12 73.16 49.92C73.84 50.72 73.76 51.92 72.96 52.64C72.76 52.84 69.48 55.64 63.08 58C60.84 58.84 60 61.56 61.4 63.48C61.44 63.52 61.44 63.56 61.48 63.56C62.16 64.52 63.28 65.04 64.44 64.96C72.12 64.4 82.28 60.44 86.96 53.84C87.68 52.84 88 51.6 88 50.36C87.64 31.84 79.84 10.92 75.92 7.28ZM31.56 44C27.88 44 24.88 40.56 24.88 36.36C24.88 32.12 27.88 28.68 31.56 28.68C35.28 28.68 38.24 32.12 38.24 36.36C38.24 40.56 35.28 44 31.56 44ZM56.44 44C52.72 44 49.76 40.56 49.76 36.36C49.76 32.12 52.72 28.68 56.44 28.68C60.12 28.68 63.12 32.12 63.12 36.36C63.12 40.56 60.12 44 56.44 44Z" fill="black"/>
</svg>
